<mxfile host="app.diagrams.net" agent="Mozilla/5.0 (X11; Linux x86_64) AppleWebKit/537.36 (KHTML, like Gecko) Chrome/129.0.0.0 Safari/537.36" version="24.7.17">
  <diagram id="C5RBs43oDa-KdzZeNtuy" name="Page-1">
    <mxGraphModel dx="1393" dy="674" grid="1" gridSize="10" guides="1" tooltips="1" connect="1" arrows="1" fold="1" page="1" pageScale="1" pageWidth="827" pageHeight="1169" math="0" shadow="0">
      <root>
        <mxCell id="WIyWlLk6GJQsqaUBKTNV-0" />
        <mxCell id="WIyWlLk6GJQsqaUBKTNV-1" parent="WIyWlLk6GJQsqaUBKTNV-0" />
        <mxCell id="N_X89fbMf8-rqe8ZvgNM-3" value="" style="edgeStyle=none;curved=1;rounded=0;orthogonalLoop=1;jettySize=auto;html=1;fontSize=12;startSize=8;endSize=8;" edge="1" parent="WIyWlLk6GJQsqaUBKTNV-1" source="N_X89fbMf8-rqe8ZvgNM-1" target="N_X89fbMf8-rqe8ZvgNM-2">
          <mxGeometry relative="1" as="geometry" />
        </mxCell>
        <mxCell id="N_X89fbMf8-rqe8ZvgNM-1" value="" style="ellipse;whiteSpace=wrap;html=1;aspect=fixed;" vertex="1" parent="WIyWlLk6GJQsqaUBKTNV-1">
          <mxGeometry x="-250" y="100" width="40" height="40" as="geometry" />
        </mxCell>
        <mxCell id="N_X89fbMf8-rqe8ZvgNM-7" value="" style="edgeStyle=none;curved=1;rounded=0;orthogonalLoop=1;jettySize=auto;html=1;fontSize=12;startSize=8;endSize=8;" edge="1" parent="WIyWlLk6GJQsqaUBKTNV-1" source="N_X89fbMf8-rqe8ZvgNM-2" target="N_X89fbMf8-rqe8ZvgNM-6">
          <mxGeometry relative="1" as="geometry" />
        </mxCell>
        <mxCell id="N_X89fbMf8-rqe8ZvgNM-2" value="prev_status = LOW" style="whiteSpace=wrap;html=1;" vertex="1" parent="WIyWlLk6GJQsqaUBKTNV-1">
          <mxGeometry x="-350" y="170" width="240" height="40" as="geometry" />
        </mxCell>
        <mxCell id="N_X89fbMf8-rqe8ZvgNM-9" value="" style="edgeStyle=none;curved=1;rounded=0;orthogonalLoop=1;jettySize=auto;html=1;fontSize=12;startSize=8;endSize=8;" edge="1" parent="WIyWlLk6GJQsqaUBKTNV-1" source="N_X89fbMf8-rqe8ZvgNM-6" target="N_X89fbMf8-rqe8ZvgNM-8">
          <mxGeometry relative="1" as="geometry" />
        </mxCell>
        <mxCell id="N_X89fbMf8-rqe8ZvgNM-6" value="curr_statuts = digitalRead(PUSH_BUTTON)" style="whiteSpace=wrap;html=1;" vertex="1" parent="WIyWlLk6GJQsqaUBKTNV-1">
          <mxGeometry x="-350" y="240" width="240" height="40" as="geometry" />
        </mxCell>
        <mxCell id="N_X89fbMf8-rqe8ZvgNM-11" value="" style="edgeStyle=none;curved=1;rounded=0;orthogonalLoop=1;jettySize=auto;html=1;fontSize=12;startSize=8;endSize=8;" edge="1" parent="WIyWlLk6GJQsqaUBKTNV-1" source="N_X89fbMf8-rqe8ZvgNM-8" target="N_X89fbMf8-rqe8ZvgNM-10">
          <mxGeometry relative="1" as="geometry" />
        </mxCell>
        <mxCell id="N_X89fbMf8-rqe8ZvgNM-29" value="LOW" style="edgeLabel;html=1;align=center;verticalAlign=middle;resizable=0;points=[];fontSize=12;" vertex="1" connectable="0" parent="N_X89fbMf8-rqe8ZvgNM-11">
          <mxGeometry x="-0.1833" y="-1" relative="1" as="geometry">
            <mxPoint as="offset" />
          </mxGeometry>
        </mxCell>
        <mxCell id="N_X89fbMf8-rqe8ZvgNM-22" value="" style="edgeStyle=none;curved=1;rounded=0;orthogonalLoop=1;jettySize=auto;html=1;fontSize=12;startSize=8;endSize=8;" edge="1" parent="WIyWlLk6GJQsqaUBKTNV-1" source="N_X89fbMf8-rqe8ZvgNM-8" target="N_X89fbMf8-rqe8ZvgNM-21">
          <mxGeometry relative="1" as="geometry" />
        </mxCell>
        <mxCell id="N_X89fbMf8-rqe8ZvgNM-30" value="HIGH" style="edgeLabel;html=1;align=center;verticalAlign=middle;resizable=0;points=[];fontSize=12;" vertex="1" connectable="0" parent="N_X89fbMf8-rqe8ZvgNM-22">
          <mxGeometry x="-0.0167" relative="1" as="geometry">
            <mxPoint as="offset" />
          </mxGeometry>
        </mxCell>
        <mxCell id="N_X89fbMf8-rqe8ZvgNM-8" value="curr_status" style="rhombus;whiteSpace=wrap;html=1;" vertex="1" parent="WIyWlLk6GJQsqaUBKTNV-1">
          <mxGeometry x="-270" y="320" width="80" height="80" as="geometry" />
        </mxCell>
        <mxCell id="N_X89fbMf8-rqe8ZvgNM-13" value="" style="edgeStyle=none;curved=1;rounded=0;orthogonalLoop=1;jettySize=auto;html=1;fontSize=12;startSize=8;endSize=8;" edge="1" parent="WIyWlLk6GJQsqaUBKTNV-1" source="N_X89fbMf8-rqe8ZvgNM-10" target="N_X89fbMf8-rqe8ZvgNM-12">
          <mxGeometry relative="1" as="geometry" />
        </mxCell>
        <mxCell id="N_X89fbMf8-rqe8ZvgNM-31" value="True" style="edgeLabel;html=1;align=center;verticalAlign=middle;resizable=0;points=[];fontSize=12;" vertex="1" connectable="0" parent="N_X89fbMf8-rqe8ZvgNM-13">
          <mxGeometry x="-0.1" y="-6" relative="1" as="geometry">
            <mxPoint as="offset" />
          </mxGeometry>
        </mxCell>
        <mxCell id="N_X89fbMf8-rqe8ZvgNM-15" value="" style="edgeStyle=orthogonalEdgeStyle;rounded=0;orthogonalLoop=1;jettySize=auto;html=1;fontSize=12;startSize=8;endSize=8;entryX=0.25;entryY=0;entryDx=0;entryDy=0;" edge="1" parent="WIyWlLk6GJQsqaUBKTNV-1" source="N_X89fbMf8-rqe8ZvgNM-10" target="N_X89fbMf8-rqe8ZvgNM-14">
          <mxGeometry relative="1" as="geometry">
            <Array as="points">
              <mxPoint x="-430" y="460" />
              <mxPoint x="-292" y="460" />
              <mxPoint x="-292" y="525" />
            </Array>
          </mxGeometry>
        </mxCell>
        <mxCell id="N_X89fbMf8-rqe8ZvgNM-34" value="False" style="edgeLabel;html=1;align=center;verticalAlign=middle;resizable=0;points=[];fontSize=12;" vertex="1" connectable="0" parent="N_X89fbMf8-rqe8ZvgNM-15">
          <mxGeometry x="-0.0297" y="1" relative="1" as="geometry">
            <mxPoint as="offset" />
          </mxGeometry>
        </mxCell>
        <mxCell id="N_X89fbMf8-rqe8ZvgNM-10" value="prev_status == HIGH" style="rhombus;whiteSpace=wrap;html=1;" vertex="1" parent="WIyWlLk6GJQsqaUBKTNV-1">
          <mxGeometry x="-470" y="320" width="80" height="80" as="geometry" />
        </mxCell>
        <mxCell id="N_X89fbMf8-rqe8ZvgNM-19" value="" style="edgeStyle=orthogonalEdgeStyle;rounded=0;orthogonalLoop=1;jettySize=auto;html=1;fontSize=12;startSize=8;endSize=8;entryX=0.02;entryY=0.583;entryDx=0;entryDy=0;entryPerimeter=0;" edge="1" parent="WIyWlLk6GJQsqaUBKTNV-1" source="N_X89fbMf8-rqe8ZvgNM-12" target="N_X89fbMf8-rqe8ZvgNM-14">
          <mxGeometry relative="1" as="geometry">
            <mxPoint x="-645" y="510" as="targetPoint" />
            <Array as="points">
              <mxPoint x="-650" y="560" />
            </Array>
          </mxGeometry>
        </mxCell>
        <mxCell id="N_X89fbMf8-rqe8ZvgNM-12" value="Serial.println(&quot;---&quot;)&lt;div&gt;prev_status == curr_status&lt;/div&gt;" style="whiteSpace=wrap;html=1;" vertex="1" parent="WIyWlLk6GJQsqaUBKTNV-1">
          <mxGeometry x="-720" y="330" width="150" height="60" as="geometry" />
        </mxCell>
        <mxCell id="N_X89fbMf8-rqe8ZvgNM-14" value="digitalWrite(LED_BUILTIN, curr_status)" style="whiteSpace=wrap;html=1;" vertex="1" parent="WIyWlLk6GJQsqaUBKTNV-1">
          <mxGeometry x="-355" y="525" width="250" height="60" as="geometry" />
        </mxCell>
        <mxCell id="N_X89fbMf8-rqe8ZvgNM-28" value="" style="edgeStyle=none;curved=1;rounded=0;orthogonalLoop=1;jettySize=auto;html=1;fontSize=12;startSize=8;endSize=8;" edge="1" parent="WIyWlLk6GJQsqaUBKTNV-1" source="N_X89fbMf8-rqe8ZvgNM-21" target="N_X89fbMf8-rqe8ZvgNM-27">
          <mxGeometry relative="1" as="geometry" />
        </mxCell>
        <mxCell id="N_X89fbMf8-rqe8ZvgNM-32" value="True" style="edgeLabel;html=1;align=center;verticalAlign=middle;resizable=0;points=[];fontSize=12;" vertex="1" connectable="0" parent="N_X89fbMf8-rqe8ZvgNM-28">
          <mxGeometry x="0.16" y="-3" relative="1" as="geometry">
            <mxPoint y="-3" as="offset" />
          </mxGeometry>
        </mxCell>
        <mxCell id="N_X89fbMf8-rqe8ZvgNM-21" value="prev_status == LOW" style="rhombus;whiteSpace=wrap;html=1;" vertex="1" parent="WIyWlLk6GJQsqaUBKTNV-1">
          <mxGeometry x="-70" y="320" width="80" height="80" as="geometry" />
        </mxCell>
        <mxCell id="N_X89fbMf8-rqe8ZvgNM-24" value="" style="edgeStyle=elbowEdgeStyle;elbow=vertical;endArrow=classic;html=1;curved=0;rounded=0;endSize=8;startSize=8;fontSize=12;entryX=0.75;entryY=0;entryDx=0;entryDy=0;exitX=0.5;exitY=1;exitDx=0;exitDy=0;" edge="1" parent="WIyWlLk6GJQsqaUBKTNV-1" source="N_X89fbMf8-rqe8ZvgNM-21" target="N_X89fbMf8-rqe8ZvgNM-14">
          <mxGeometry width="50" height="50" relative="1" as="geometry">
            <mxPoint x="-310" y="340" as="sourcePoint" />
            <mxPoint x="-260" y="290" as="targetPoint" />
            <Array as="points">
              <mxPoint x="-100" y="460" />
            </Array>
          </mxGeometry>
        </mxCell>
        <mxCell id="N_X89fbMf8-rqe8ZvgNM-35" value="False" style="edgeLabel;html=1;align=center;verticalAlign=middle;resizable=0;points=[];fontSize=12;" vertex="1" connectable="0" parent="N_X89fbMf8-rqe8ZvgNM-24">
          <mxGeometry x="0.0578" y="-3" relative="1" as="geometry">
            <mxPoint x="9" as="offset" />
          </mxGeometry>
        </mxCell>
        <mxCell id="N_X89fbMf8-rqe8ZvgNM-25" value="" style="edgeStyle=orthogonalEdgeStyle;elbow=vertical;endArrow=classic;html=1;rounded=0;endSize=8;startSize=8;fontSize=12;entryX=1;entryY=0.5;entryDx=0;entryDy=0;" edge="1" parent="WIyWlLk6GJQsqaUBKTNV-1" source="N_X89fbMf8-rqe8ZvgNM-14" target="N_X89fbMf8-rqe8ZvgNM-6">
          <mxGeometry width="50" height="50" relative="1" as="geometry">
            <mxPoint x="-230" y="640" as="sourcePoint" />
            <mxPoint x="-110" y="290" as="targetPoint" />
            <Array as="points">
              <mxPoint x="-230" y="640" />
              <mxPoint x="310" y="640" />
              <mxPoint x="310" y="260" />
            </Array>
          </mxGeometry>
        </mxCell>
        <mxCell id="N_X89fbMf8-rqe8ZvgNM-27" value="Serial.println(&quot;Pushed&quot;)&lt;div&gt;prev_status == curr_status&lt;/div&gt;" style="whiteSpace=wrap;html=1;" vertex="1" parent="WIyWlLk6GJQsqaUBKTNV-1">
          <mxGeometry x="110" y="330" width="150" height="60" as="geometry" />
        </mxCell>
      </root>
    </mxGraphModel>
  </diagram>
</mxfile>
